# xmcd CD database file
#
# Track frame offsets:
#	150
#	15977
#	39500
#	60647
#	77375
#	96468
#	112241
#	131302
#	148313
#	168489
#	184778
#
# Disc length: 2720 seconds
#
# Revision: 0
# Processed by: cddbd v1.5.2PL0 Copyright (c) Steve Scherf et al.
# Submitted via: jetAudio 7
#
DISCID=910a9e0b
DTITLE=張毅  - 戱弓
DYEAR=1900
DGENRE=Misc
TTITLE0=花兒爲(為)什麽這樣紅
TTITLE1=漁光曲
TTITLE2=情慿誰來定錯對
TTITLE3=洪湖水，浪打浪
TTITLE4=夢不到你
TTITLE5=其實你不懂我的心
TTITLE6=再見二丁目
TTITLE7=軍港之夜
TTITLE8=我願意
TTITLE9=花心
TTITLE10=一直是晴天
EXTD=
EXTT0=
EXTT1=
EXTT2=
EXTT3=
EXTT4=
EXTT5=
EXTT6=
EXTT7=
EXTT8=
EXTT9=
EXTT10=
PLAYORDER=
